<svg width="149" height="19" viewBox="0 0 149 19" fill="none" xmlns="http://www.w3.org/2000/svg">
<path fill-rule="evenodd" clip-rule="evenodd" d="M141.793 18.298V4.58839H148.28V0.0562744H129.439V4.58839H135.926V18.298H141.793Z" fill="white"/>
<path fill-rule="evenodd" clip-rule="evenodd" d="M105.861 18.298V13.8792H97.005C96.6666 13.8792 96.1589 13.8792 95.8768 13.6526C95.764 13.5393 95.5948 13.3127 95.5948 12.9728V10.99H105.523V7.02439H95.5948V5.66476C95.5948 5.43816 95.5948 4.98494 95.8768 4.75834C96.1025 4.58839 96.4409 4.47508 96.7794 4.47508H105.748V0.0562744H92.6615C91.9846 0.0562744 91.1385 0.169577 90.4616 0.792743C89.7847 1.41591 89.6719 2.15238 89.6719 2.88884V15.4088C89.6719 16.2586 89.6719 16.995 90.518 17.7315C91.1949 18.298 91.9846 18.3547 92.718 18.3547H105.861V18.298Z" fill="white"/>
<path fill-rule="evenodd" clip-rule="evenodd" d="M67.2203 13.8226H65.4717V18.298H86.9634V13.8226H85.1583L80.3072 2.09572C79.9687 1.1893 79.179 0.0562744 76.1893 0.0562744C73.1433 0.0562744 72.41 1.1893 72.0715 2.09572L67.2203 13.8226ZM75.9073 5.94802C75.9637 5.77806 76.0201 5.49481 76.1893 5.49481C76.3586 5.49481 76.415 5.77806 76.4714 5.94802L79.3482 13.7659H73.0304L75.9073 5.94802Z" fill="white"/>
<path fill-rule="evenodd" clip-rule="evenodd" d="M119.738 4.47574C120.076 4.47574 120.358 4.47574 120.64 4.759C120.922 5.04226 120.922 5.38217 120.922 5.72207V18.3553H126.789V2.71955C126.789 2.09639 126.676 1.47322 126.112 0.850056C125.379 0.113588 124.533 0.0569364 123.461 0.0569364H112.01C111.164 0.0569364 110.092 0.000285082 109.302 0.850056C108.738 1.41657 108.625 2.09639 108.625 2.71955V18.2987H114.492V5.66542C114.492 5.32552 114.492 4.98561 114.774 4.70235C115.056 4.41909 115.394 4.41909 115.676 4.41909H119.738V4.47574Z" fill="white"/>
<path fill-rule="evenodd" clip-rule="evenodd" d="M41.1592 18.2984H47.2513L48.6615 14.5594H55.1485L56.5588 18.2984H62.6509L55.9947 2.2094C55.1485 0.169954 53.6255 0 51.8768 0C49.1128 0 48.3231 0.84977 47.759 2.2094L41.1592 18.2984ZM51.6512 5.89174C51.7076 5.77844 51.8204 5.49518 51.8768 5.49518C51.9332 5.49518 52.0461 5.77844 52.1025 5.89174L53.7383 10.4805H50.0153L51.6512 5.89174Z" fill="white"/>
<path fill-rule="evenodd" clip-rule="evenodd" d="M17.8688 0L12.5483 5.44417L20.4287 14.7194L32.1738 14.669L17.8688 0Z" fill="#FA6334"/>
<path fill-rule="evenodd" clip-rule="evenodd" d="M16.3127 15.4753L17.8185 13.9631L11.5946 6.40173L0 18.2982H35.9382L33.1776 15.5258L16.3127 15.4753Z" fill="white"/>
</svg>
